HIERARCHY
ROOT Hips
{
  OFFSET 90.7885 88.945 -76.2838
  CHANNELS 6 Xposition Yposition Zposition Zrotation Xrotation Yrotation
  JOINT LeftUpLeg
  {
    OFFSET 8.64259 1.95398 -2.38835
    CHANNELS 3 Zrotation Xrotation Yrotation
    JOINT LeftLeg
    {
      OFFSET 43.7702 0 0
      CHANNELS 3 Zrotation Xrotation Yrotation
      JOINT LeftFoot
      {
        OFFSET 40.6238 0 0
        CHANNELS 3 Zrotation Xrotation Yrotation
        JOINT LeftToeBase
        {
          OFFSET 12.7242 0 0
          CHANNELS 3 Zrotation Xrotation Yrotation
          End Site
          {
            OFFSET 0 0 0
          }
        }
      }
    }
  }
  JOINT RightUpLeg
  {
    OFFSET -8.2249 1.95398 -2.59336
    CHANNELS 3 Zrotation Xrotation Yrotation
    JOINT RightLeg
    {
      OFFSET 43.5653 0 0
      CHANNELS 3 Zrotation Xrotation Yrotation
      JOINT RightFoot
      {
        OFFSET 40.6238 0 0
        CHANNELS 3 Zrotation Xrotation Yrotation
        JOINT RightToeBase
        {
          OFFSET 12.7242 0 0
          CHANNELS 3 Zrotation Xrotation Yrotation
          End Site
          {
            OFFSET 0 0 0
          }
        }
      }
    }
  }
  JOINT Spine
  {
    OFFSET 0.165834 0.87714 6.61349
    CHANNELS 3 Zrotation Xrotation Yrotation
    JOINT Spine1
    {
      OFFSET 7.38963 1.71661e-005 0
      CHANNELS 3 Zrotation Xrotation Yrotation
      JOINT Spine2
      {
        OFFSET 11.9445 1.14441e-005 0
        CHANNELS 3 Zrotation Xrotation Yrotation
        JOINT Spine3
        {
          OFFSET 14.7254 4.19617e-005 0
          CHANNELS 3 Zrotation Xrotation Yrotation
          JOINT Spine4
          {
            OFFSET 10.9679 0 0
            CHANNELS 3 Zrotation Xrotation Yrotation
            JOINT RightShoulder
            {
              OFFSET 2.46616 -1.6653 3.69651
              CHANNELS 3 Zrotation Xrotation Yrotation
              JOINT RightArm
              {
                OFFSET 13.0012 0 0
                CHANNELS 3 Zrotation Xrotation Yrotation
                JOINT RightForeArm
                {
                  OFFSET 28.7848 1.52588e-005 0
                  CHANNELS 3 Zrotation Xrotation Yrotation
                  JOINT RightHand
                  {
                    OFFSET 26.5688 1.52588e-005 0
                    CHANNELS 3 Zrotation Xrotation Yrotation
                    End Site
                    {
                      OFFSET 0 0 0
                    }
                  }
                }
              }
            }
            JOINT LeftShoulder
            {
              OFFSET 2.38034 -1.29275 -3.7523
              CHANNELS 3 Zrotation Xrotation Yrotation
              JOINT LeftArm
              {
                OFFSET 16.3182 6.10352e-005 0
                CHANNELS 3 Zrotation Xrotation Yrotation
                JOINT LeftForeArm
                {
                  OFFSET 27.0901 0 0
                  CHANNELS 3 Zrotation Xrotation Yrotation
                  JOINT LeftHand
                  {
                    OFFSET 24.5451 1.52588e-005 0
                    CHANNELS 3 Zrotation Xrotation Yrotation
                    End Site
                    {
                      OFFSET 0 0 0
                    }
                  }
                }
              }
            }
            JOINT Neck
            {
              OFFSET 5.0226 -0.0266342 0
              CHANNELS 3 Zrotation Xrotation Yrotation
              JOINT Head
              {
                OFFSET 6.69363 2.86102e-005 0
                CHANNELS 3 Zrotation Xrotation Yrotation
                End Site
                {
                  OFFSET 0 0 0
                }
              }
            }
          }
        }
      }
    }
  }
}
MOTION
Frames:	7
Frame Time:	0.0416667
10.4152 99.4262 19.381 -152.245 -81.6549 -152.853 -177.778 -1.18041 89.4445 -14.686 2.33956 -0.0667913 70.7902 4.14395 -1.74948 15.4697 -1.66985 3.99656 169.815 -3.49078 87.3955 -13.7971 -4.11168 -0.149348 71.1606 -5.67446 3.47259 21.753 -0.431703 2.33004 0.189885 7.66728 -90.1073 11.5397 0.327591 -0.247425 -0.131253 0.316386 -0.261622 -22.6667 0.3868 -0.137535 -2.65402 0.386804 -0.137543 89.6016 -30.8733 -107.208 40.7092 -17.3847 -6.71091 2.60176 -26.2924 -17.2194 -21.4206 -1.21709 -5.08742 -88.3791 -56.7539 82.3442 -17.1116 24.2352 -15.8295 1.40028 3.37997 -10.0383 0.851873 -0.0665664 -3.51882 8.18939 -0.525296 -0.394655 -6.05492 -0.467141 0.986952 
10.3929 99.4311 19.3642 -151.871 -81.7536 -152.367 -177.753 -0.986352 89.5684 -14.818 2.04628 -0.0468004 70.9112 4.14484 -2.14496 15.0492 -1.68258 4.04188 169.965 -3.37162 87.5962 -13.8213 -4.43972 -0.184032 70.9126 -5.62353 2.88471 21.8055 -0.604943 2.6658 0.205812 7.64641 -90.1401 11.5815 0.34389 -0.314705 -0.0894368 0.329702 -0.329547 -22.6248 0.422563 -0.196812 -2.61216 0.422565 -0.196806 89.7584 -30.5816 -107.013 40.9355 -17.269 -6.62822 3.35375 -26.184 -16.3421 -22.3889 -1.05284 -6.05049 -88.6856 -57.0866 81.9739 -16.9506 24.1649 -15.6496 1.42752 3.44347 -10.0986 0.592539 -0.0750237 -3.76302 8.19778 -0.629205 -0.410267 -6.45536 -0.582656 1.34333 
10.455 99.4481 19.3923 -153.281 -81.8462 -153.97 -177.798 -1.22314 89.3667 -14.3641 2.5801 -0.120568 71.4731 4.49319 -2.26443 13.4022 -2.93387 5.62125 169.824 -3.26142 87.3831 -14.0722 -4.73056 -0.176507 70.9249 -5.61751 2.29599 20.6705 -0.865251 3.35714 0.199691 7.6577 -90.1695 11.5589 0.317965 -0.370451 -0.112081 0.301358 -0.384098 -22.6473 0.414592 -0.257772 -2.63467 0.414606 -0.257765 90.1001 -30.0912 -106.526 41.0758 -17.0748 -6.79877 4.20979 -25.2437 -15.3028 -24.6022 -0.587799 -8.54825 -89.2819 -58.0685 81.319 -15.9088 24.3881 -15.9923 0.877518 2.20325 -9.58915 0.752273 -0.113516 -5.22021 7.79085 -0.880286 0.186066 -5.4234 -0.937894 1.19921 
10.4717 99.4457 19.4741 -153.345 -81.9399 -154.076 -177.754 -1.14728 89.3494 -14.4822 2.63047 -0.198771 71.651 4.54166 -2.24867 13.4016 -2.7694 5.43194 169.649 -3.29794 87.222 -13.9261 -4.48192 -0.0780293 71.1065 -5.66911 2.90716 20.5619 -0.727768 3.10013 0.171486 7.65739 -90.1625 11.5594 0.265132 -0.350985 -0.111543 0.249432 -0.362325 -22.6467 0.358366 -0.255078 -2.63405 0.358359 -0.255083 89.9836 -30.1643 -106.729 40.9139 -17.0914 -6.84896 4.56263 -25.6021 -15.1698 -24.932 -0.613904 -8.44536 -89.1626 -58.0321 81.4769 -16.0407 24.2132 -15.9168 1.04677 2.52107 -9.6728 0.84924 -0.0944308 -4.50425 8.01455 -0.758374 0.287367 -5.4606 -0.830211 0.883193 
10.4538 99.4347 19.5126 -151.089 -81.7047 -151.603 -177.63 -1.17453 89.5919 -14.7116 2.16559 -0.234336 71.8217 4.49343 -2.78541 13.5511 -3.48339 6.22616 169.839 -3.40554 87.47 -13.817 -4.65219 -0.127741 70.858 -5.61342 2.6929 20.7809 -0.952317 3.51017 0.241914 7.66433 -90.1534 11.5458 0.409509 -0.347765 -0.125132 0.393803 -0.365467 -22.6606 0.495093 -0.208617 -2.64799 0.495094 -0.208624 89.8525 -30.6602 -106.798 40.7278 -16.8687 -6.61776 4.30958 -25.9107 -15.236 -24.1561 -0.758701 -7.78626 -89.4368 -57.2716 80.9651 -16.8264 23.9502 -15.539 1.47914 3.67538 -10.0073 0.557988 -0.109244 -5.10168 7.775 -0.957801 -0.525725 -5.08026 -0.867688 1.37956 
10.5423 99.4409 19.5514 -154.723 -82.0226 -155.548 -177.811 -1.16837 89.1958 -14.5393 3.19029 -0.168719 71.5886 4.57727 -2.10398 13.7478 -3.40486 6.12569 169.679 -3.17106 87.1152 -14.0419 -5.19249 -0.16492 70.5135 -5.42221 2.11038 21.8297 -0.968596 3.39661 0.167801 7.64839 -90.123 11.5774 0.276247 -0.273681 -0.0935562 0.263932 -0.285574 -22.6288 0.345726 -0.178 -2.61618 0.345726 -0.178 89.8016 -30.7881 -106.849 40.6054 -17.0404 -6.36503 4.74568 -25.4722 -15.4528 -25.7137 -0.519384 -8.83269 -89.4882 -57.8113 80.9905 -16.1504 24.4572 -15.6967 0.866445 1.89243 -9.65204 0.465456 -0.106602 -5.04347 7.51725 -0.962661 -0.539665 -4.82835 -0.870391 1.47883 
10.5137 99.4536 19.6425 -153.177 -81.8423 -153.911 -177.713 -1.34109 89.3332 -14.4952 2.69889 -0.246661 71.6471 4.57971 -2.19814 13.9617 -3.20092 5.88104 169.632 -3.42398 87.1626 -13.9761 -4.66713 -0.115153 71.0114 -5.59111 2.64528 20.6394 -0.962422 3.55048 0.19632 7.64195 -90.1345 11.5903 0.327624 -0.301788 -0.0806029 0.314026 -0.315923 -22.616 0.403163 -0.189379 -2.60331 0.403178 -0.18937 89.9577 -30.7483 -106.559 40.9445 -16.8813 -6.30341 4.79742 -25.573 -15.057 -25.6429 -0.448114 -9.24608 -89.1773 -57.78 81.4127 -16.4789 23.8518 -15.4599 1.4805 3.8379 -9.83044 0.978218 -0.095382 -4.52537 7.44938 -0.915931 -0.53036 -4.94686 -0.83443 1.70544 
